<svg xmlns="http://www.w3.org/2000/svg" width="1200" height="340" viewBox="0 0 1200 340" role="img" aria-label="Make useful things.">
<defs><linearGradient id="bg" x2="1" y2="1"><stop stop-color="#0B1A13"/><stop offset="1" stop-color="#06100C"/></linearGradient><pattern id="grid" width="40" height="40" patternUnits="userSpaceOnUse"><path d="M40 0H0V40" fill="none" stroke="#A8FF57" stroke-opacity=".06"/></pattern></defs>
<rect width="1200" height="340" rx="24" fill="url(#bg)"/><rect width="1200" height="340" rx="24" fill="url(#grid)"/>
<g font-family="system-ui,-apple-system,Segoe UI,sans-serif"><rect x="48" y="46" width="7" height="16" rx="3" fill="#A8FF57"/><text x="70" y="59" fill="#A8FF57" font-size="13" letter-spacing="2">HONESTTAI / OPEN-SOURCE WORKBENCH</text>
<text x="48" y="139" fill="#f2f6fc" font-size="58" font-weight="750" letter-spacing="-1.5">Make useful things.</text>
<text x="50" y="191" fill="#acbfd4" font-size="21">AI infrastructure, creative tools, and workflows that ship.</text>
<path d="M50 225H790" stroke="#2E5240"/><text x="50" y="270" fill="#dbe7f3" font-size="13" letter-spacing="2">AI TOOLS</text><circle cx="166" cy="266" r="3" fill="#A8FF57"/><text x="186" y="270" fill="#dbe7f3" font-size="13" letter-spacing="2">SKILLS + PLUGINS</text><circle cx="356" cy="266" r="3" fill="#45DCC3"/><text x="376" y="270" fill="#dbe7f3" font-size="13" letter-spacing="2">REAL WORKFLOWS</text></g>
<g transform="translate(920 106)" fill="none" stroke-width="2"><rect width="160" height="128" rx="20" stroke="#2E5240"/><path d="M26 44L45 63 26 82M66 83H99" stroke="#A8FF57" stroke-width="5" stroke-linecap="round" stroke-linejoin="round"/><circle cx="144" cy="15" r="28" fill="#0F231A" stroke="#45DCC3"/><path d="M133 15L141 23 155 6" stroke="#45DCC3" stroke-width="3" stroke-linecap="round"/></g></svg>
