<svg xmlns="http://www.w3.org/2000/svg" width="1200" height="340" viewBox="0 0 1200 340" role="img" aria-label="把想法，做成实用工具。">
<defs><linearGradient id="bg" x2="1" y2="1"><stop stop-color="#F5FAF2"/><stop offset="1" stop-color="#EAF4EC"/></linearGradient><pattern id="grid" width="40" height="40" patternUnits="userSpaceOnUse"><path d="M40 0H0V40" fill="none" stroke="#3F9500" stroke-opacity=".06"/></pattern></defs>
<rect width="1200" height="340" rx="24" fill="url(#bg)"/><rect width="1200" height="340" rx="24" fill="url(#grid)"/>
<g font-family="system-ui,-apple-system,Segoe UI,sans-serif"><rect x="48" y="46" width="7" height="16" rx="3" fill="#3F9500"/><text x="70" y="59" fill="#3F9500" font-size="13" letter-spacing="2">HONESTTAI / OPEN-SOURCE WORKBENCH</text>
<text x="48" y="139" fill="#152A1F" font-size="58" font-weight="750" letter-spacing="-1.5">把想法，做成实用工具。</text>
<text x="50" y="191" fill="#64786B" font-size="21">AI 基础设施、创作工具，以及真实工作中的可复用流程。</text>
<path d="M50 225H790" stroke="#D3E2D4"/><text x="50" y="270" fill="#2C4536" font-size="13" letter-spacing="2">AI TOOLS</text><circle cx="166" cy="266" r="3" fill="#3F9500"/><text x="186" y="270" fill="#2C4536" font-size="13" letter-spacing="2">SKILLS + PLUGINS</text><circle cx="356" cy="266" r="3" fill="#0E9C86"/><text x="376" y="270" fill="#2C4536" font-size="13" letter-spacing="2">REAL WORKFLOWS</text></g>
<g transform="translate(920 106)" fill="none" stroke-width="2"><rect width="160" height="128" rx="20" stroke="#D3E2D4"/><path d="M26 44L45 63 26 82M66 83H99" stroke="#3F9500" stroke-width="5" stroke-linecap="round" stroke-linejoin="round"/><circle cx="144" cy="15" r="28" fill="#FFFFFF" stroke="#0E9C86"/><path d="M133 15L141 23 155 6" stroke="#0E9C86" stroke-width="3" stroke-linecap="round"/></g></svg>
